<svg width="512" height="512" viewBox="0 0 70 70" fill="none" xmlns="http://www.w3.org/2000/svg">
  <rect width="70" height="70" rx="28" fill="#14B8A6"/>
  <path d="M31 24C36.3482 24 40.8769 27.4995 42.4268 32.333C43.2421 32.1171 44.1057 32 45 32C49.9706 32 54 35.5817 54 40C54 44.4183 49.9706 48 45 48C43.7585 48 42.5759 47.7762 41.5 47.3721C40.4241 47.7762 39.2415 48 38 48C36.8199 48 35.6938 47.7957 34.6611 47.4287C33.5067 47.7982 32.277 48 31 48C24.3726 48 19 42.6274 19 36C19 29.3726 24.3726 24 31 24Z" fill="white"/>
</svg>
